PathFileType	4	(X/Y/Z)	/Users/rkoike/Documents/python/sports2d/webcam_20250606_145141/webcam_20250606_145141_px_person00.trc
DataRate	CameraRate	NumFrames	NumMarkers	Units	OrigDataRate	OrigDataStartFrame	OrigNumFrames
30	30	8	22	m	30	3522	4026
Frame#	Time	Hip			RHip			RKnee			RAnkle			RBigToe			RSmallToe			RHeel			LHip			LKnee			LAnkle			LBigToe			LSmallToe			LHeel			Neck			Head			Nose			RShoulder			RElbow			RWrist			LShoulder			LElbow			LWrist			
		X1	Y1	Z1	X2	Y2	Z2	X3	Y3	Z3	X4	Y4	Z4	X5	Y5	Z5	X6	Y6	Z6	X7	Y7	Z7	X8	Y8	Z8	X9	Y9	Z9	X10	Y10	Z10	X11	Y11	Z11	X12	Y12	Z12	X13	Y13	Z13	X14	Y14	Z14	X15	Y15	Z15	X16	Y16	Z16	X17	Y17	Z17	X18	Y18	Z18	X19	Y19	Z19	X20	Y20	Z20	X21	Y21	Z21	X22	Y22	Z22
3522	117.42916770186335	533.0130810533549	733.934614020713	0.0	431.25425409491953	741.3114678708369	0.0	218.9486122946136	747.8172458750404	0.0	436.3263195290533	726.2096775347235	0.0			0.0	1216.587890625	110.494140625	0.0			0.0	708.4299819301792	736.6490267672809	0.0	851.6448875110799	699.2099549983802	0.0	954.2962422002433	700.3676375816644	0.0	1049.5675449983692	631.079417364846	0.0	1049.5675449983692	648.4014724190506	0.0	910.9911045647317	735.0117476900746	0.0	559.444470773701	393.4147099899299	0.0	520.4903539824244	77.61004857768	0.0	481.50976852057045	238.06486429034598	0.0	393.7711534725628	480.28496873713755	0.0	283.2372018198374	709.9290199804216	0.0	153.2964732639426	721.4623798445444	0.0	794.5918280787918	494.50200168114986	0.0	836.5385284735497	719.7049713632607	0.0	885.7051945280724	700.3704884377325	0.0
3523	117.46250931677018	530.7233792505677	728.8950802852751	0.0	431.22423677086215	740.4669778205065	0.0	220.6359639680447	746.9863997211709	0.0	436.3263195290533	726.2096775347235	0.0			0.0	1216.587890625	110.494140625	0.0			0.0	710.1084220352927	735.4918415250021	0.0	864.8649970481844	697.4995997225654	0.0	954.2962422002433	700.3676375816644	0.0	1049.5675449983692	631.079417364846	0.0	1049.5675449983692	648.4014724190506	0.0	910.9911045647317	735.0117476900746	0.0	559.9825427441136	392.38773274105614	0.0	521.291467374781	78.67576035571237	0.0	478.9149106998904	237.41414301124917	0.0	391.2477138602064	481.0098480069863	0.0	279.5362127542778	709.2230863144515	0.0	132.22700904353238	720.4033765341441	0.0	794.2199034585283	495.6795673850262	0.0	837.0817315949441	714.7699643157813	0.0	891.981710695577	699.2205538444134	0.0
3524	117.49585093167701	527.9469603587567	724.8011517626427	0.0	428.80195365448736	739.4413133951386	0.0	222.8199426319762	745.8707056571865	0.0	436.3263195290533	726.2096775347235	0.0			0.0	1216.587890625	110.494140625	0.0			0.0	711.6957224663039	734.6482556590088	0.0	881.1429837776477	695.4953142323466	0.0	954.2962422002433	700.3676375816644	0.0	1049.5675449983692	631.079417364846	0.0	1049.5675449983692	648.4014724190506	0.0	910.9911045647317	735.0117476900746	0.0	560.3286175243327	392.29850197345564	0.0	522.4141867960418	79.72988850532668	0.0	478.7301142451789	237.32194769106061	0.0	390.13034455480033	481.50424559855367	0.0	277.89761205223584	706.7771458545377	0.0	121.69537594738584	719.5895672036431	0.0	791.076138250782	496.0424799813256	0.0	837.0995822421277	711.677164309227	0.0	898.9703815294193	697.7509106812815	0.0
3525	117.52919254658384	530.5138613738416	733.4451408646215	0.0	424.384113066489	741.8184411489249	0.0	218.32432911037554	748.0082596195421	0.0	436.3263195290533	726.2096775347235	0.0			0.0	1216.587890625	110.494140625	0.0			0.0	706.1196166218633	738.9658722495312	0.0	844.3484503120366	700.4475057699858	0.0	954.2962422002433	700.3676375816644	0.0	1049.5675449983692	631.079417364846	0.0	1049.5675449983692	648.4014724190506	0.0	910.9911045647317	735.0117476900746	0.0	562.0748117079937	388.8917125005008	0.0	517.6568964247163	80.19887332495007	0.0	484.26708414247054	238.48383591052195	0.0	393.79585748485664	478.84512044160454	0.0	287.0305061841156	701.731351499374	0.0	149.77361613666633	719.9148282889604	0.0	789.7414259537903	493.4248711770175	0.0	835.8478807250809	717.5712965036644	0.0	880.1056494147076	700.8500552870647	0.0
3526	117.56253416149067	537.3524851946456	755.2134922061124	0.0	422.7368550223155	750.5391157800227	0.0	198.6873404029792	757.739750253236	0.0	436.3263195290533	726.2096775347235	0.0			0.0	1216.587890625	110.494140625	0.0			0.0	687.4907530334157	751.4217848421237	0.0	691.78370575356	720.0284463863438	0.0	954.2962422002433	700.3676375816644	0.0	1049.5675449983692	631.079417364846	0.0	1049.5675449983692	648.4014724190506	0.0	910.9911045647317	735.0117476900746	0.0	565.8295557156455	382.46827977989125	0.0	509.0153413408188	79.40118414872158	0.0	492.151806818639	240.01256222857933	0.0	400.0181935465917	473.75109881358134	0.0	304.06276502821373	694.5676751703348	0.0	186.07198193235826	720.6028795780434	0.0	790.2755443680843	489.35624918248163	0.0	835.3291749903672	727.1681998664861	0.0	808.8156307165593	714.2037433332076	0.0
3527	117.5958757763975	539.527651469812	766.6824669156315	0.0	424.51675912507415	759.0173579755241	0.0	169.41941394288952	772.8469980650214	0.0	436.3263195290533	726.2096775347235	0.0			0.0	1216.587890625	110.494140625	0.0			0.0	666.1285432680041	762.9418696633657	0.0	473.7320204583265	746.8862825717151	0.0	954.2962422002433	700.3676375816644	0.0	1049.5675449983692	631.079417364846	0.0	1049.5675449983692	648.4014724190506	0.0	910.9911045647317	735.0117476900746	0.0	568.2281072470649	380.4467856767739	0.0	506.3768006978602	78.14668470515154	0.0	495.4942995907221	240.3958332272731	0.0	402.50393422686665	472.4818236536613	0.0	311.0619629278858	691.2169895503953	0.0	186.09641662142863	719.9187927964244	0.0	789.9222374963869	487.5565367807515	0.0	835.7756895078217	727.9627903239815	0.0	715.7082206013229	733.9274388384457	0.0
3528	117.62921739130434	536.0479839378837	755.0034348336126	0.0	422.8982661793064	756.9220668806278	0.0	147.50024884900944	785.7610486589474	0.0	436.3263195290533	726.2096775347235	0.0			0.0	1216.587890625	110.494140625	0.0			0.0	660.2076732338603	761.0831360202203	0.0	327.57864123313084	762.8232074907359	0.0	954.2962422002433	700.3676375816644	0.0	1049.5675449983692	631.079417364846	0.0	1049.5675449983692	648.4014724190506	0.0	910.9911045647317	735.0117476900746	0.0	567.471713759913	384.96165455185786	0.0	512.6337012480989	78.57932647938635	0.0	494.4872971227465	240.60341032665087	0.0	399.78913306180937	476.5006549630452	0.0	299.8242663682146	694.8082159181024	0.0	161.8895160688715	717.9772846609953	0.0	789.5039911272016	487.45555803681805	0.0	835.4459353299993	719.6154555360278	0.0	671.4255833996517	748.4618436133228	0.0
3529	117.66255900621117	535.3594223238798	743.6196378744495	0.0	417.0262047063551	748.6213746685387	0.0	139.36801548337274	793.2174695585499	0.0	436.3263195290533	726.2096775347235	0.0			0.0	1216.587890625	110.494140625	0.0			0.0	667.5453121668903	752.1327577411276	0.0	300.42124311115106	762.2979584762222	0.0	954.2962422002433	700.3676375816644	0.0	1049.5675449983692	631.079417364846	0.0	1049.5675449983692	648.4014724190506	0.0	910.9911045647317	735.0117476900746	0.0	568.1999022669197	388.33401312904834	0.0	520.2022730549186	80.35939222558211	0.0	497.51735084540337	242.96459424514566	0.0	398.1849736988408	476.9193554297458	0.0	288.6561535743886	696.9061865991443	0.0	156.17087390679714	717.9922948436364	0.0	791.5586980665655	484.9518609084418	0.0	836.0278090431835	714.8816526259254	0.0	695.1601809716595	753.4654863589153	0.0
